<svg xmlns="http://www.w3.org/2000/svg" width="172" height="57.96" viewBox="0 0 172 57.96">
    <defs>
        <style>
            .cls-1{fill:#03c}.cls-2{fill:#3c0}.cls-3{fill:#c03}
        </style>
    </defs>
    <g id="Logo_" transform="translate(-181.05 -261.419)">
        <path id="Path_11197" d="M182.063 292.739a.934.934 0 0 1-.939-.939v-28.667a.935.935 0 0 1 .939-.94h21.579a.936.936 0 0 1 .94.94v5.718a.935.935 0 0 1-.94.939h-13.9a.8.8 0 0 0-.783.784v2.819a.8.8 0 0 0 .783.783h11.122a.935.935 0 0 1 .94.94v5.209a.935.935 0 0 1-.94.94h-11.125a.8.8 0 0 0-.783.783v2.35a.8.8 0 0 0 .783.783h13.9a.935.935 0 0 1 .94.94v5.679a.935.935 0 0 1-.94.939z" class="cls-1" transform="translate(-.018 -.186)"/>
        <path id="Path_11198" d="M222.732 291.8a.935.935 0 0 1-.94.939h-5.913a.934.934 0 0 1-.94-.939v-28.667a.935.935 0 0 1 .94-.94h4.738a1.791 1.791 0 0 1 1.528.744l12.571 15.7c.078.131.176.17.294.117a.276.276 0 0 0 .176-.273v-15.348a.935.935 0 0 1 .939-.94h5.914a.936.936 0 0 1 .94.94V291.8a.935.935 0 0 1-.94.939H237.3a1.79 1.79 0 0 1-1.528-.743L223.2 276.33q-.117-.195-.294-.118a.28.28 0 0 0-.176.275z" class="cls-2" transform="translate(-8.142 -.186)"/>
        <path id="Path_11199" d="M270.277 285.582a8.136 8.136 0 0 0 3.955-.96 8.424 8.424 0 0 0 2.9-2.565.976.976 0 0 1 1.371-.432l5.443 2.389a.711.711 0 0 1 .43.49.785.785 0 0 1-.077.685 16.23 16.23 0 0 1-2.526 3.27 15.425 15.425 0 0 1-3.29 2.506 16.761 16.761 0 0 1-3.9 1.605 16.26 16.26 0 0 1-4.308.568 15.849 15.849 0 0 1-6.247-1.253 16.637 16.637 0 0 1-5.17-3.407 16.212 16.212 0 0 1-3.5-5.033 15.365 15.365 0 0 1 0-12.336 16.223 16.223 0 0 1 3.5-5.032 16.68 16.68 0 0 1 5.17-3.408 15.848 15.848 0 0 1 6.247-1.253 16.261 16.261 0 0 1 4.308.568 16.036 16.036 0 0 1 3.857 1.605 16.82 16.82 0 0 1 3.271 2.487 15.885 15.885 0 0 1 2.545 3.211.791.791 0 0 1 .079.685.843.843 0 0 1-.432.529l-5.4 2.389a1.057 1.057 0 0 1-.764.1 1 1 0 0 1-.608-.49 8.4 8.4 0 0 0-2.917-2.565 8.485 8.485 0 0 0-7.167-.314 8.523 8.523 0 0 0-2.643 1.763 8.045 8.045 0 0 0-1.782 2.642 8.486 8.486 0 0 0 0 6.5 8.043 8.043 0 0 0 1.782 2.644 8.505 8.505 0 0 0 2.643 1.762 8.1 8.1 0 0 0 3.23.65z" class="cls-3" transform="translate(-17.543)"/>
        <path id="Path_11200" d="M310.328 293.14a15.849 15.849 0 0 1-6.247-1.253 16.637 16.637 0 0 1-5.17-3.407 16.213 16.213 0 0 1-3.5-5.033 15.365 15.365 0 0 1 0-12.336 16.224 16.224 0 0 1 3.5-5.032 16.681 16.681 0 0 1 5.17-3.408 16.3 16.3 0 0 1 12.532 0 16.676 16.676 0 0 1 5.169 3.408 15.971 15.971 0 0 1 3.486 5.032 15.575 15.575 0 0 1 0 12.336 15.96 15.96 0 0 1-3.486 5.033 16.633 16.633 0 0 1-5.169 3.407 15.951 15.951 0 0 1-6.285 1.253zm0-24.163a8.124 8.124 0 0 0-3.231.646 8.524 8.524 0 0 0-2.643 1.763 8.044 8.044 0 0 0-1.782 2.642 8.485 8.485 0 0 0 0 6.5 8.042 8.042 0 0 0 1.782 2.644 8.506 8.506 0 0 0 2.643 1.762 8.1 8.1 0 0 0 3.231.647 8.334 8.334 0 0 0 5.893-14.2 8.237 8.237 0 0 0-5.893-2.409z" class="cls-1" transform="translate(-27.166)"/>
        <path id="Path_11201" d="M339.011 263.133a.937.937 0 0 1 .94-.94h13.981a13.408 13.408 0 0 1 5.091.881 9.561 9.561 0 0 1 5.659 5.972 13.448 13.448 0 0 1 .685 4.309 12.724 12.724 0 0 1-1.292 5.658 9.267 9.267 0 0 1-4.034 4.131.639.639 0 0 0-.372.451.708.708 0 0 0 .137.568l5.6 7.793a.476.476 0 0 1-.391.782h-7.48a1.787 1.787 0 0 1-1.488-.782l-4.778-6.775a1.2 1.2 0 0 0-.548-.469 1.73 1.73 0 0 0-.705-.157h-2.428a.8.8 0 0 0-.783.783v6.462a.935.935 0 0 1-.94.939h-5.914a.935.935 0 0 1-.94-.939zm18.8 10.3a4.442 4.442 0 0 0-.979-2.937 4.125 4.125 0 0 0-3.329-1.175h-5.914a.8.8 0 0 0-.783.783v6.58a.8.8 0 0 0 .783.783h5.911a5.33 5.33 0 0 0 2-.333 3.659 3.659 0 0 0 1.332-.881 3.365 3.365 0 0 0 .744-1.292 5.046 5.046 0 0 0 .233-1.529z" class="cls-2" transform="translate(-37.953 -.186)"/>
        <path id="Path_11202" d="M377.374 292.739a.934.934 0 0 1-.939-.939v-28.667a.935.935 0 0 1 .939-.94h21.579a.937.937 0 0 1 .94.94v5.718a.935.935 0 0 1-.94.939h-13.9a.8.8 0 0 0-.783.784v2.819a.8.8 0 0 0 .783.783h11.122a.935.935 0 0 1 .94.94v5.209a.935.935 0 0 1-.94.94H385.05a.8.8 0 0 0-.783.783v2.35a.8.8 0 0 0 .783.783h13.9a.935.935 0 0 1 .94.94v5.679a.935.935 0 0 1-.94.939z" class="cls-3" transform="translate(-46.944 -.186)"/>
        <g id="Group_2477" transform="translate(181.05 295.975)">
            <path id="Path_11203" d="M199.882 318.849v7.942h-2.767v-7.763c0-1.794-.974-2.793-2.486-2.793-1.64 0-2.792 1.051-2.792 3.382v7.174h-2.767v-7.763c0-1.794-.9-2.793-2.408-2.793-1.563 0-2.844 1.051-2.844 3.382v7.174h-2.768v-12.81h2.768v1.538a4.115 4.115 0 0 1 3.663-1.87 3.974 3.974 0 0 1 3.638 2.024 4.394 4.394 0 0 1 3.92-2.024c2.895-.001 4.843 1.998 4.843 5.2z" transform="translate(-181.05 -308.524)"/>
            <path id="Path_11204" d="M219.713 314.086V326.9h-2.767v-1.64a4.41 4.41 0 0 1-3.971 1.973c-2.87 0-4.919-1.946-4.919-5.278v-7.866h2.768v7.584a2.669 2.669 0 0 0 2.869 2.971c1.82 0 3.254-1.076 3.254-3.689v-6.867z" transform="translate(-187.539 -308.63)"/>
            <path id="Path_11205" d="M235.3 323.179c0 2.562-2.229 3.945-5 3.945a5.344 5.344 0 0 1-5.226-3l2.382-1.384a2.814 2.814 0 0 0 2.844 1.845c1.23 0 2.177-.409 2.177-1.434 0-2.281-6.892-1-6.892-5.586 0-2.408 2.076-3.92 4.688-3.92a5.159 5.159 0 0 1 4.74 2.665l-2.332 1.306a2.5 2.5 0 0 0-2.408-1.46c-1 0-1.87.436-1.87 1.358.009 2.334 6.897.925 6.897 5.665z" transform="translate(-191.629 -308.524)"/>
            <path id="Path_11206" d="M239.68 308.672a1.768 1.768 0 1 1 1.768 1.768 1.772 1.772 0 0 1-1.768-1.768zm.384 3.689h2.768v12.811h-2.768z" transform="translate(-195.137 -306.904)"/>
            <path id="Path_11207" d="M245.749 320.386a6.609 6.609 0 0 1 6.763-6.738 6.328 6.328 0 0 1 5.712 3.3l-2.382 1.384a3.581 3.581 0 0 0-3.357-1.973 4.023 4.023 0 0 0 0 8.045 3.76 3.76 0 0 0 3.407-1.973l2.383 1.358a6.44 6.44 0 0 1-5.764 3.331 6.624 6.624 0 0 1-6.762-6.734z" transform="translate(-196.595 -308.524)"/>
            <path id="Path_11208" d="M283.383 313.981v12.811h-2.767v-1.845a5.263 5.263 0 0 1-4.483 2.177 6.748 6.748 0 0 1 0-13.476 5.308 5.308 0 0 1 4.483 2.152v-1.82zm-2.767 6.405a4.048 4.048 0 1 0-4.048 4.1 3.959 3.959 0 0 0 4.048-4.1z" transform="translate(-202.363 -308.524)"/>
            <path id="Path_11209" d="M289.644 320.386a6.61 6.61 0 0 1 6.763-6.738 6.33 6.33 0 0 1 5.713 3.3l-2.383 1.384a3.581 3.581 0 0 0-3.357-1.973 4.023 4.023 0 0 0 0 8.045 3.762 3.762 0 0 0 3.408-1.973l2.382 1.358a6.44 6.44 0 0 1-5.764 3.331 6.625 6.625 0 0 1-6.762-6.734z" transform="translate(-207.141 -308.524)"/>
            <path id="Path_11210" d="M319.827 313.981v12.811h-2.766v-1.845a5.266 5.266 0 0 1-4.484 2.177 6.748 6.748 0 0 1 0-13.476 5.31 5.31 0 0 1 4.484 2.152v-1.82zm-2.766 6.405a4.049 4.049 0 1 0-4.048 4.1 3.959 3.959 0 0 0 4.048-4.1z" transform="translate(-211.119 -308.524)"/>
            <path id="Path_11211" d="M339.719 307.342v17.934h-2.767v-1.845a5.263 5.263 0 0 1-4.483 2.177 6.748 6.748 0 0 1 0-13.476 5.308 5.308 0 0 1 4.483 2.152v-6.943zm-2.767 11.529a4.048 4.048 0 1 0-4.048 4.1 3.959 3.959 0 0 0 4.048-4.1z" transform="translate(-215.898 -307.009)"/>
            <path id="Path_11212" d="M352.974 324.587a3.909 3.909 0 0 0 3.3-1.589l2.28 1.333a6.471 6.471 0 0 1-5.611 2.793c-4.228 0-6.968-2.895-6.968-6.738a6.534 6.534 0 0 1 6.763-6.738 6.464 6.464 0 0 1 6.43 6.764 8.452 8.452 0 0 1-.1 1.153h-10.2a3.849 3.849 0 0 0 4.106 3.022zm3.407-5.277a3.563 3.563 0 0 0-3.663-3.151 3.724 3.724 0 0 0-3.869 3.151z" transform="translate(-220.677 -308.524)"/>
            <path id="Path_11213" d="M384.028 318.849v7.942h-2.767v-7.763c0-1.794-.974-2.793-2.485-2.793-1.64 0-2.793 1.051-2.793 3.382v7.174h-2.766v-7.763c0-1.794-.9-2.793-2.408-2.793-1.564 0-2.844 1.051-2.844 3.382v7.174H365.2v-12.81h2.767v1.538a4.118 4.118 0 0 1 3.664-1.87 3.976 3.976 0 0 1 3.638 2.024 4.392 4.392 0 0 1 3.92-2.024c2.892-.001 4.839 1.998 4.839 5.2z" transform="translate(-225.294 -308.524)"/>
            <path id="Path_11214" d="M403.313 314.086l-4.919 13.221c-1.2 3.253-3.3 4.893-6.251 4.713v-2.588c1.793.1 2.766-.82 3.407-2.51l.128-.257-5.431-12.58h3.022l3.818 9.3 3.279-9.3z" transform="translate(-231.313 -308.63)"/>
        </g>
    </g>
</svg>
