<svg xmlns="http://www.w3.org/2000/svg" width="172" height="57.96" viewBox="0 0 172 57.96">
    <defs>
        <style>
            .cls-1{fill:#fff}
        </style>
    </defs>
    <g id="logo_footer_" transform="translate(-639.024 -482.781)">
        <path id="Path_11215" d="M640 513.679a.935.935 0 0 1-.94-.94v-28.667a.935.935 0 0 1 .94-.939h21.578a.935.935 0 0 1 .94.939v5.719a.935.935 0 0 1-.94.939h-13.9a.805.805 0 0 0-.784.783v2.819a.8.8 0 0 0 .784.783H658.8a.935.935 0 0 1 .94.94v5.208a.935.935 0 0 1-.94.94h-11.128a.805.805 0 0 0-.784.783v2.35a.805.805 0 0 0 .784.783h13.9a.935.935 0 0 1 .94.939v5.679a.935.935 0 0 1-.94.94z" class="cls-1" transform="translate(.022 .236)"/>
        <path id="Path_11216" d="M662.232 512.739a.935.935 0 0 1-.94.94h-5.913a.935.935 0 0 1-.94-.94v-28.667a.935.935 0 0 1 .94-.939h4.739a1.789 1.789 0 0 1 1.526.743l12.572 15.7a.215.215 0 0 0 .294.119.278.278 0 0 0 .175-.274v-15.349a.935.935 0 0 1 .941-.939h5.913a.935.935 0 0 1 .94.939v28.667a.935.935 0 0 1-.94.94H676.8a1.786 1.786 0 0 1-1.527-.743L662.7 497.27c-.08-.13-.177-.17-.3-.119a.28.28 0 0 0-.175.276z" class="cls-1" transform="translate(10.332 .236)"/>
        <path id="Path_11217" d="M688.447 506.943a8.133 8.133 0 0 0 3.955-.959 8.428 8.428 0 0 0 2.9-2.566.976.976 0 0 1 1.371-.431l5.443 2.39a.709.709 0 0 1 .431.489.786.786 0 0 1-.079.685 16.157 16.157 0 0 1-2.527 3.27 15.473 15.473 0 0 1-3.289 2.507 16.808 16.808 0 0 1-3.9 1.605 16.3 16.3 0 0 1-4.308.566 15.848 15.848 0 0 1-6.247-1.253 16.657 16.657 0 0 1-5.17-3.406 16.228 16.228 0 0 1-3.5-5.034 15.358 15.358 0 0 1 0-12.335 16.239 16.239 0 0 1 3.5-5.033 16.692 16.692 0 0 1 5.17-3.407 15.849 15.849 0 0 1 6.247-1.253 16.231 16.231 0 0 1 4.308.568 16.037 16.037 0 0 1 3.857 1.605 16.807 16.807 0 0 1 3.272 2.487 15.893 15.893 0 0 1 2.544 3.212.781.781 0 0 1 .079.685.846.846 0 0 1-.431.529l-5.4 2.389a1.054 1.054 0 0 1-.763.1 1 1 0 0 1-.608-.489 8.424 8.424 0 0 0-2.918-2.566 8.186 8.186 0 0 0-3.935-.959 8.1 8.1 0 0 0-3.23.646 8.529 8.529 0 0 0-2.644 1.762 8.073 8.073 0 0 0-1.782 2.642 8.5 8.5 0 0 0 0 6.5 8.037 8.037 0 0 0 1.782 2.642 8.469 8.469 0 0 0 2.644 1.762 8.074 8.074 0 0 0 3.228.65z" class="cls-1" transform="translate(22.26)"/>
        <path id="Path_11218" d="M706.664 514.5a15.839 15.839 0 0 1-6.245-1.253 16.634 16.634 0 0 1-5.17-3.406 16.234 16.234 0 0 1-3.506-5.034 15.377 15.377 0 0 1 0-12.335 16.245 16.245 0 0 1 3.506-5.033 16.669 16.669 0 0 1 5.17-3.407 16.3 16.3 0 0 1 12.532 0 16.7 16.7 0 0 1 5.168 3.407 15.965 15.965 0 0 1 3.486 5.033 15.579 15.579 0 0 1 0 12.335 15.955 15.955 0 0 1-3.486 5.034 16.668 16.668 0 0 1-5.168 3.406 15.954 15.954 0 0 1-6.287 1.253zm0-24.162a8.1 8.1 0 0 0-3.23.646 8.522 8.522 0 0 0-2.642 1.762 8.07 8.07 0 0 0-1.782 2.642 8.5 8.5 0 0 0 0 6.5 8.035 8.035 0 0 0 1.782 2.642 8.462 8.462 0 0 0 2.642 1.762 8.075 8.075 0 0 0 3.23.646 8.335 8.335 0 0 0 5.894-14.2 8.249 8.249 0 0 0-5.894-2.409z" class="cls-1" transform="translate(34.471)"/>
        <path id="Path_11219" d="M710.873 484.072a.935.935 0 0 1 .94-.939h13.98a13.419 13.419 0 0 1 5.091.88 9.551 9.551 0 0 1 5.659 5.973 13.393 13.393 0 0 1 .687 4.308 12.708 12.708 0 0 1-1.293 5.659 9.264 9.264 0 0 1-4.034 4.131.642.642 0 0 0-.372.451.711.711 0 0 0 .137.568l5.6 7.793a.476.476 0 0 1-.391.783H729.4a1.79 1.79 0 0 1-1.488-.783l-4.777-6.775a1.218 1.218 0 0 0-.548-.471 1.741 1.741 0 0 0-.705-.155h-2.432a.746.746 0 0 0-.548.234.754.754 0 0 0-.235.549v6.461a.935.935 0 0 1-.94.94h-5.913a.935.935 0 0 1-.94-.94zm18.8 10.3a4.44 4.44 0 0 0-.979-2.938 4.122 4.122 0 0 0-3.329-1.174h-5.915a.805.805 0 0 0-.783.783v6.579a.8.8 0 0 0 .783.783h5.915a5.353 5.353 0 0 0 2-.332 3.672 3.672 0 0 0 1.333-.882 3.378 3.378 0 0 0 .743-1.293 5.029 5.029 0 0 0 .231-1.526z" class="cls-1" transform="translate(48.159 .236)"/>
        <path id="Path_11220" d="M728.835 513.679a.935.935 0 0 1-.94-.94v-28.667a.935.935 0 0 1 .94-.939h21.578a.935.935 0 0 1 .94.939v5.719a.935.935 0 0 1-.94.939h-13.9a.805.805 0 0 0-.783.783v2.819a.8.8 0 0 0 .783.783h11.122a.935.935 0 0 1 .94.94v5.208a.935.935 0 0 1-.94.94H736.51a.805.805 0 0 0-.783.783v2.35a.805.805 0 0 0 .783.783h13.9a.935.935 0 0 1 .94.939v5.679a.935.935 0 0 1-.94.94z" class="cls-1" transform="translate(59.568 .236)"/>
        <g id="Group_2480" transform="translate(639.024 517.337)">
            <path id="Path_11221" d="M657.855 511.738v7.942h-2.766v-7.762c0-1.794-.976-2.793-2.485-2.793-1.64 0-2.793 1.051-2.793 3.381v7.174h-2.768v-7.762c0-1.794-.9-2.793-2.409-2.793-1.562 0-2.843 1.051-2.843 3.381v7.174h-2.768v-12.809h2.768v1.537a4.118 4.118 0 0 1 3.663-1.871 3.974 3.974 0 0 1 3.638 2.024 4.4 4.4 0 0 1 3.92-2.024c2.897 0 4.843 1.999 4.843 5.201z" class="cls-1" transform="translate(-639.024 -501.414)"/>
            <path id="Path_11222" d="M662.965 506.737v12.809H660.2v-1.64a4.413 4.413 0 0 1-3.972 1.974c-2.87 0-4.919-1.948-4.919-5.278v-7.865h2.768v7.583a2.668 2.668 0 0 0 2.868 2.971c1.819 0 3.255-1.076 3.255-3.688v-6.867z" class="cls-1" transform="translate(-630.79 -501.28)"/>
            <path id="Path_11223" d="M669.274 516.068c0 2.562-2.228 3.947-5 3.947a5.347 5.347 0 0 1-5.226-3l2.382-1.383a2.815 2.815 0 0 0 2.845 1.844c1.229 0 2.176-.409 2.176-1.435 0-2.28-6.89-1-6.89-5.585 0-2.407 2.074-3.92 4.688-3.92a5.157 5.157 0 0 1 4.739 2.666l-2.332 1.306a2.5 2.5 0 0 0-2.407-1.46c-1 0-1.871.436-1.871 1.358.005 2.331 6.896.923 6.896 5.662z" class="cls-1" transform="translate(-625.6 -501.414)"/>
            <path id="Path_11224" d="M665.692 505.237a1.768 1.768 0 1 1 1.769 1.769 1.789 1.789 0 0 1-1.769-1.769zm.384 3.69h2.768v12.809h-2.768z" class="cls-1" transform="translate(-621.149 -503.47)"/>
            <path id="Path_11225" d="M668.452 513.275a6.611 6.611 0 0 1 6.765-6.738 6.33 6.33 0 0 1 5.712 3.306l-2.382 1.385a3.584 3.584 0 0 0-3.357-1.974 4.023 4.023 0 0 0 0 8.046 3.762 3.762 0 0 0 3.407-1.973l2.382 1.358a6.44 6.44 0 0 1-5.763 3.331 6.626 6.626 0 0 1-6.764-6.741z" class="cls-1" transform="translate(-619.299 -501.414)"/>
            <path id="Path_11226" d="M693 506.871v12.809h-2.768v-1.844a5.262 5.262 0 0 1-4.483 2.178 6.749 6.749 0 0 1 0-13.478 5.307 5.307 0 0 1 4.483 2.153v-1.819zm-2.768 6.4a4.048 4.048 0 1 0-4.047 4.1 3.959 3.959 0 0 0 4.048-4.096z" class="cls-1" transform="translate(-611.98 -501.414)"/>
            <path id="Path_11227" d="M688.418 513.275a6.611 6.611 0 0 1 6.765-6.738 6.33 6.33 0 0 1 5.712 3.306l-2.382 1.385a3.585 3.585 0 0 0-3.357-1.974 4.023 4.023 0 0 0 0 8.046 3.762 3.762 0 0 0 3.407-1.973l2.383 1.358a6.444 6.444 0 0 1-5.764 3.331 6.626 6.626 0 0 1-6.764-6.741z" class="cls-1" transform="translate(-605.916 -501.414)"/>
            <path id="Path_11228" d="M709.577 506.871v12.809h-2.767v-1.844a5.262 5.262 0 0 1-4.483 2.178 6.749 6.749 0 0 1 0-13.478 5.307 5.307 0 0 1 4.483 2.153v-1.819zm-2.768 6.4a4.048 4.048 0 1 0-4.047 4.1 3.959 3.959 0 0 0 4.048-4.096z" class="cls-1" transform="translate(-600.869 -501.414)"/>
            <path id="Path_11229" d="M718.624 503.669V521.6h-2.766v-1.844a5.264 5.264 0 0 1-4.483 2.178 6.749 6.749 0 0 1 0-13.477 5.309 5.309 0 0 1 4.483 2.153v-6.943zm-2.766 11.531a4.048 4.048 0 1 0-4.047 4.1 3.959 3.959 0 0 0 4.047-4.1z" class="cls-1" transform="translate(-594.805 -503.337)"/>
            <path id="Path_11230" d="M721.036 517.477a3.909 3.909 0 0 0 3.305-1.588l2.28 1.333a6.472 6.472 0 0 1-5.61 2.793 6.741 6.741 0 1 1-.206-13.478 6.464 6.464 0 0 1 6.431 6.765 8.549 8.549 0 0 1-.1 1.152h-10.2a3.851 3.851 0 0 0 4.1 3.023zm3.407-5.278a3.563 3.563 0 0 0-3.663-3.15 3.722 3.722 0 0 0-3.868 3.15z" class="cls-1" transform="translate(-588.741 -501.414)"/>
            <path id="Path_11231" d="M741.615 511.738v7.942h-2.766v-7.762c0-1.794-.976-2.793-2.487-2.793-1.638 0-2.791 1.051-2.791 3.381v7.174H730.8v-7.762c0-1.794-.9-2.793-2.409-2.793-1.563 0-2.843 1.051-2.843 3.381v7.174h-2.768v-12.809h2.768v1.537a4.119 4.119 0 0 1 3.663-1.871 3.976 3.976 0 0 1 3.638 2.024 4.393 4.393 0 0 1 3.92-2.024c2.898 0 4.846 1.999 4.846 5.201z" class="cls-1" transform="translate(-582.882 -501.414)"/>
            <path id="Path_11232" d="M747.245 506.737l-4.919 13.22c-1.2 3.254-3.305 4.892-6.252 4.714v-2.587c1.792.1 2.766-.82 3.407-2.51l.127-.257-5.43-12.579h3.022l3.818 9.3 3.28-9.3z" class="cls-1" transform="translate(-575.245 -501.28)"/>
        </g>
    </g>
</svg>
